<svg width="2500" height="1000" viewBox="0 0 2500 1000" fill="none" xmlns="http://www.w3.org/2000/svg">
<path d="M167 -5.96046e-05H334C379.333 -5.96046e-05 418.333 16.6666 451 50C483.667 82.6666 500 121.667 500 167V583C500 628.333 483.667 667.667 451 701C418.333 733.667 379.333 750 334 750H167C121.667 750 82.3333 733.667 49 701C16.3333 668.333 4.29153e-06 629 4.29153e-06 583V167C4.29153e-06 121 16.3333 81.6666 49 49C82.3333 16.3333 121.667 -5.96046e-05 167 -5.96046e-05ZM167 167V583C167 605.667 175 625.333 191 642C207.667 658.667 227.333 667 250 667C273.333 667 293 658.667 309 642C325.667 625.333 334 605.667 334 583V167C334 143.667 325.667 124 309 108C293 91.3333 273.333 82.9999 250 82.9999C227.333 82.9999 207.667 91.3333 191 108C175 124 167 143.667 167 167ZM666.992 167H833.992V667H916.992C940.326 667 959.992 658.667 975.992 642C992.659 625.333 1000.99 605.667 1000.99 583V167H1166.99V667H1250.99C1273.66 667 1292.99 658.667 1308.99 642C1325.66 625.333 1333.99 605.667 1333.99 583V167H1500.99V465C1500.99 543 1472.99 610 1416.99 666C1361.66 722 1294.66 750 1215.99 750H1000.99V724C968.992 741.333 929.659 750 882.992 750H666.992V167ZM1666.99 750V-5.96046e-05H1833.99V750H1666.99ZM2084 833C2088 889 2115.67 917 2167 917H2250C2273.33 917 2293 908.667 2309 892C2325.67 876 2334 856.333 2334 833V667C2327.33 722.333 2299.33 750 2250 750H2167C2121.67 750 2082.33 733.667 2049 701C2016.33 668.333 2000 629 2000 583V167H2167V583C2167 605.667 2175 625.333 2191 642C2207.67 658.667 2227.33 667 2250 667C2273.33 667 2293 658.667 2309 642C2325.67 625.333 2334 605.667 2334 583V167H2500V833C2500 878.333 2483.67 917.333 2451 950C2418.33 983.333 2379.33 1000 2334 1000H2167C2069 1000 2013.33 944.333 2000 833H2084Z" fill="#F50357" fill-opacity="0.94"/>
</svg>
